<?xml version="1.0" encoding="UTF-8" standalone="no"?>
<!-- Generator: Adobe Illustrator 16.0.0, SVG Export Plug-In . SVG Version: 6.00 Build 0)  -->

<svg
   xmlns:dc="http://purl.org/dc/elements/1.1/"
   xmlns:cc="http://creativecommons.org/ns#"
   xmlns:rdf="http://www.w3.org/1999/02/22-rdf-syntax-ns#"
   xmlns:svg="http://www.w3.org/2000/svg"
   xmlns="http://www.w3.org/2000/svg"
   xmlns:sodipodi="http://sodipodi.sourceforge.net/DTD/sodipodi-0.dtd"
   xmlns:inkscape="http://www.inkscape.org/namespaces/inkscape"
   version="1.1"
   id="Capa_1"
   x="0px"
   y="0px"
   width="32.75px"
   height="32.75px"
   viewBox="0 0 32.75 32.75"
   style="enable-background:new 0 0 32.75 32.75;"
   xml:space="preserve"
   sodipodi:docname="calendar-page.svg"
   inkscape:version="0.92.3 (2405546, 2018-03-11)"><metadata
   id="metadata4670"><rdf:RDF><cc:Work
       rdf:about=""><dc:format>image/svg+xml</dc:format><dc:type
         rdf:resource="http://purl.org/dc/dcmitype/StillImage" /></cc:Work></rdf:RDF></metadata><defs
   id="defs4668" /><sodipodi:namedview
   pagecolor="#ffffff"
   bordercolor="#666666"
   borderopacity="1"
   objecttolerance="10"
   gridtolerance="10"
   guidetolerance="10"
   inkscape:pageopacity="0"
   inkscape:pageshadow="2"
   inkscape:window-width="1366"
   inkscape:window-height="705"
   id="namedview4666"
   showgrid="true"
   inkscape:zoom="10.190974"
   inkscape:cx="30.722086"
   inkscape:cy="15.304077"
   inkscape:window-x="-8"
   inkscape:window-y="-8"
   inkscape:window-maximized="1"
   inkscape:current-layer="Capa_1"><inkscape:grid
     type="xygrid"
     id="grid5215" /></sodipodi:namedview>
<g
   id="g4633"
   style="fill:#387740">
	<g
   id="g4631"
   style="fill:#387740">
		<path
   d="M 29.375,1.25 H 28.251 C 28.279,1.157 28.309,1.064 28.309,0.961 28.311,0.431 27.879,0 27.348,0 c -0.531,0 -0.961,0.431 -0.961,0.961 0,0.103 0.028,0.196 0.059,0.289 h -3.68 C 22.795,1.157 22.824,1.064 22.824,0.961 22.823,0.43 22.393,0 21.861,0 21.331,0 20.9,0.431 20.9,0.961 c 0,0.103 0.029,0.196 0.059,0.289 h -3.68 C 17.308,1.157 17.337,1.064 17.337,0.961 17.336,0.431 16.906,0 16.375,0 c -0.531,0 -0.961,0.431 -0.961,0.961 0,0.103 0.029,0.196 0.058,0.289 h -3.68 C 11.821,1.157 11.85,1.064 11.85,0.961 11.85,0.431 11.419,0 10.888,0 10.357,0 9.927,0.431 9.927,0.961 c 0,0.103 0.028,0.196 0.058,0.289 H 6.305 C 6.335,1.157 6.363,1.064 6.363,0.961 6.363,0.43 5.933,0 5.402,0 4.871,0 4.441,0.431 4.441,0.961 4.441,1.064 4.47,1.157 4.499,1.25 H 3.375 C 1.858,1.25 0.625,2.483 0.625,4 v 26 c 0,1.518 1.233,2.75 2.75,2.75 H 26.27 l 5.855,-5.855 V 4 c 0,-1.517 -1.232,-2.75 -2.75,-2.75 z m 1.25,25.023 -0.311,0.311 h -2.356 c -1.101,0 -2,0.9 -2,2 v 2.355 l -0.31,0.311 H 3.375 C 2.686,31.25 2.125,30.689 2.125,30 V 7 h 28.5 z"
   id="path4623"
   style="fill:#cccccc"
   inkscape:connector-curvature="0"
   sodipodi:nodetypes="sccsscccsscccssccsssccssscssssccssccssccssccc" />
		
		
		
	</g>
</g>
<g
   id="g4635">
</g>
<g
   id="g4637">
</g>
<g
   id="g4639">
</g>
<g
   id="g4641">
</g>
<g
   id="g4643">
</g>
<g
   id="g4645">
</g>
<g
   id="g4647">
</g>
<g
   id="g4649">
</g>
<g
   id="g4651">
</g>
<g
   id="g4653">
</g>
<g
   id="g4655">
</g>
<g
   id="g4657">
</g>
<g
   id="g4659">
</g>
<g
   id="g4661">
</g>
<g
   id="g4663">
</g>
</svg>